<svg height="300" width="300" xmlns="http://www.w3.org/2000/svg"><path fill="#009bdb" d="M225.869 220.084c-6.785 0-10.075 2.467-13.776 5.551-4.112 3.29-8.636 6.991-17.682 6.991-8.841 0-13.57-3.701-17.682-6.991-3.701-2.879-6.991-5.551-13.776-5.551s-10.075 2.467-13.776 5.551c-4.112 3.29-8.636 6.991-17.682 6.991-8.841 0-13.57-3.701-17.682-6.991-3.701-2.879-6.991-5.551-13.776-5.551s-10.075 2.467-13.776 5.551c-2.673 2.056-5.551 4.523-9.869 5.757 17.065 15.009 38.86 24.673 62.71 26.729.617 0 1.234.206 2.056.206 2.262.206 4.729.206 6.991.206 2.467 0 4.729-.206 6.991-.206.617 0 1.234 0 2.056-.206 29.196-2.467 55.103-16.449 73.196-37.421-1.028-.411-2.673-.617-4.523-.617zM69.196 138.869c7.402 0 10.897-2.879 14.804-5.963 4.112-3.29 8.224-6.579 16.449-6.579s12.542 3.29 16.449 6.579c3.907 3.084 7.402 5.963 14.804 5.963s10.897-2.879 14.804-5.963c4.112-3.29 8.224-6.579 16.449-6.579s12.542 3.29 16.449 6.579c3.907 3.084 7.402 5.963 14.804 5.963s10.897-2.879 14.804-5.963c4.112-3.29 8.224-6.579 16.449-6.579s12.542 3.29 16.449 6.579c3.701 3.084 7.402 5.757 14.393 5.963-1.028-9.869-3.29-19.533-6.785-28.374-3.701-1.234-6.374-3.29-9.047-5.346-3.907-3.084-7.607-5.963-15.215-5.963s-11.308 2.879-15.215 5.963-8.019 6.374-16.243 6.374-12.131-3.29-16.243-6.374c-3.907-3.084-7.607-5.963-15.215-5.963s-11.308 2.879-15.215 5.963-8.019 6.374-16.243 6.374-12.131-3.29-16.243-6.374c-3.907-3.084-7.607-5.963-15.215-5.963s-11.308 2.879-15.215 5.963-8.019 6.374-16.243 6.374-12.131-3.29-16.243-6.374l-2.673-2.056c-3.495 7.402-6.374 15.421-8.019 23.85 5.551 1.028 8.841 3.495 12.131 6.168 5.14 2.879 8.636 5.757 16.037 5.757zm0-28.99c7.607 0 11.308-2.879 15.215-5.963s8.019-6.374 16.243-6.374 12.131 3.29 16.243 6.374c3.907 3.084 7.607 5.963 15.215 5.963s11.308-2.879 15.215-5.963 8.019-6.374 16.243-6.374 12.131 3.29 16.243 6.374c3.907 3.084 7.607 5.963 15.215 5.963s11.308-2.879 15.215-5.963 8.019-6.374 16.243-6.374 12.131 3.29 16.243 6.374c2.262 1.645 4.318 3.495 6.991 4.523C233.477 68.963 194.411 41 149.178 41c-42.766 0-79.57 24.673-97.458 60.654 1.028.822 2.056 1.439 2.879 2.262 3.29 2.879 6.991 5.963 14.598 5.963zm156.673 79.981c-6.991 0-10.28 2.673-13.981 5.757-3.907 3.084-8.43 6.785-17.271 6.785-8.636 0-13.159-3.495-17.271-6.785-3.907-3.084-7.196-5.757-13.981-5.757-6.991 0-10.28 2.673-13.981 5.757-3.907 3.084-8.43 6.785-17.271 6.785-8.636 0-13.159-3.495-17.271-6.785-3.907-3.084-7.196-5.757-13.981-5.757-6.991 0-10.28 2.673-13.981 5.757-3.907 3.084-8.43 6.785-17.271 6.785-8.636 0-13.159-3.495-17.271-6.785-1.028-.822-2.056-1.645-3.084-2.262 5.346 12.336 12.953 23.439 22.411 32.897 5.346-.411 8.224-2.879 11.514-5.346 4.112-3.29 8.636-6.991 17.682-6.991s13.57 3.701 17.682 6.991c3.701 2.879 6.991 5.551 13.776 5.551s10.075-2.467 13.776-5.551c4.112-3.29 8.636-6.991 17.682-6.991 8.841 0 13.57 3.701 17.682 6.991 3.701 2.879 6.991 5.551 13.776 5.551s10.075-2.467 13.776-5.551c4.112-3.29 8.636-6.991 17.682-6.991 3.701 0 6.785.617 9.252 1.645 3.907-5.14 7.196-10.486 10.28-16.243-2.056-1.234-3.701-2.467-5.346-3.701-4.729-3.29-8.224-5.757-15.009-5.757zm31.047-48.112c-8.224 0-12.336-3.29-16.449-6.579-3.907-3.084-7.402-5.963-14.804-5.963s-10.897 2.879-14.804 5.963c-4.112 3.29-8.224 6.579-16.449 6.579s-12.542-3.29-16.449-6.579c-3.907-3.084-7.402-5.963-14.804-5.963s-10.897 2.879-14.804 5.963c-4.112 3.29-8.224 6.579-16.449 6.579s-12.542-3.29-16.449-6.579c-3.907-3.084-7.402-5.963-14.804-5.963s-10.897 2.879-14.804 5.963c-4.112 3.29-8.224 6.579-16.449 6.579s-12.542-3.29-16.449-6.579c-3.084-2.467-6.168-4.729-10.897-5.551-1.028 5.14-1.645 10.486-1.85 15.832 0 1.439-.206 2.879-.206 4.112 0 1.439 0 2.879.206 4.112v1.85c7.196.617 11.103 3.701 14.804 6.579s7.196 5.757 14.393 5.757 10.692-2.879 14.393-5.757c3.907-3.084 8.43-6.579 16.86-6.579s12.953 3.495 16.86 6.579c3.701 2.879 7.196 5.757 14.393 5.757s10.692-2.879 14.393-5.757c3.907-3.084 8.43-6.579 16.86-6.579s12.953 3.495 16.86 6.579c3.701 2.879 7.196 5.757 14.393 5.757s10.692-2.879 14.393-5.757c3.907-3.084 8.43-6.579 16.86-6.579s12.953 3.495 16.86 6.579c3.495 2.673 6.785 5.346 12.953 5.757a79.35 79.35 0 0 0 1.234-10.075c0-1.234.206-2.673.206-3.907v-8.43c.206-1.234 0-3.701 0-3.701zm-31.047 17.888c-7.196 0-10.692 2.879-14.393 5.757-3.907 3.084-8.43 6.579-16.86 6.579s-12.953-3.495-16.86-6.579c-3.701-2.879-7.196-5.757-14.393-5.757s-10.692 2.879-14.393 5.757c-3.907 3.084-8.43 6.579-16.86 6.579s-12.953-3.495-16.86-6.579c-3.701-2.879-7.196-5.757-14.393-5.757s-10.692 2.879-14.393 5.757c-3.907 3.084-8.43 6.579-16.86 6.579s-12.953-3.495-16.86-6.579c-3.29-2.673-6.374-5.14-11.925-5.757.822 9.252 2.879 17.888 5.757 26.318 3.907 1.234 6.579 3.495 9.047 5.551 3.907 3.084 7.196 5.757 13.981 5.757 6.991 0 10.28-2.673 13.981-5.757 3.907-3.084 8.43-6.785 17.271-6.785 8.636 0 13.159 3.495 17.271 6.785 3.907 3.084 7.196 5.757 13.981 5.757 6.991 0 10.28-2.673 13.981-5.757 3.907-3.084 8.43-6.785 17.271-6.785 8.636 0 13.159 3.495 17.271 6.785 3.907 3.084 7.196 5.757 13.981 5.757 6.991 0 10.28-2.673 13.981-5.757 3.907-3.084 8.43-6.785 17.271-6.785 8.636 0 13.159 3.495 17.271 6.785 1.439 1.234 2.879 2.262 4.523 3.29 3.29-7.196 5.757-14.804 7.402-22.822-7.196-.617-11.103-3.701-14.804-6.579-3.701-3.084-7.402-5.757-14.393-5.757z"/><path fill="#fff" d="M208.187 220.701c-3.701 2.879-6.991 5.551-13.776 5.551s-10.075-2.467-13.776-5.551c-4.112-3.29-8.636-6.991-17.682-6.991-8.841 0-13.57 3.701-17.682 6.991-3.701 2.879-6.991 5.551-13.776 5.551s-10.075-2.467-13.776-5.551c-4.112-3.29-8.636-6.991-17.682-6.991s-13.57 3.701-17.682 6.991c-3.29 2.673-6.168 4.935-11.514 5.346 1.85 1.85 3.701 3.495 5.551 5.14 4.318-1.234 7.196-3.701 9.869-5.757 3.701-2.879 6.991-5.551 13.776-5.551s10.075 2.467 13.776 5.551c4.112 3.29 8.636 6.991 17.682 6.991 8.841 0 13.57-3.701 17.682-6.991 3.701-2.879 6.991-5.551 13.776-5.551s10.075 2.467 13.776 5.551c4.112 3.29 8.636 6.991 17.682 6.991 8.841 0 13.57-3.701 17.682-6.991 3.701-2.879 6.991-5.551 13.776-5.551 1.85 0 3.495.206 4.935.617 1.439-1.645 2.879-3.495 4.112-5.14-2.467-1.028-5.551-1.645-9.252-1.645-8.841 0-13.364 3.701-17.477 6.991zm17.682-35.981c-8.636 0-13.159 3.495-17.271 6.785-3.907 3.084-7.196 5.757-13.981 5.757-6.991 0-10.28-2.673-13.981-5.757-3.907-3.084-8.43-6.785-17.271-6.785-8.636 0-13.159 3.495-17.271 6.785-3.907 3.084-7.196 5.757-13.981 5.757-6.991 0-10.28-2.673-13.981-5.757-3.907-3.084-8.43-6.785-17.271-6.785-8.636 0-13.159 3.495-17.271 6.785-3.907 3.084-7.196 5.757-13.981 5.757-6.991 0-10.28-2.673-13.981-5.757-2.467-2.056-5.14-4.112-9.047-5.551.822 2.467 1.85 4.729 2.879 7.196 1.028.617 2.056 1.439 3.084 2.262 3.907 3.084 8.43 6.785 17.271 6.785 8.636 0 13.159-3.495 17.271-6.785 3.907-3.084 7.196-5.757 13.981-5.757 6.991 0 10.28 2.673 13.981 5.757 3.907 3.084 8.43 6.785 17.271 6.785 8.636 0 13.159-3.495 17.271-6.785 3.907-3.084 7.196-5.757 13.981-5.757 6.991 0 10.28 2.673 13.981 5.757 3.907 3.084 8.43 6.785 17.271 6.785 8.636 0 13.159-3.495 17.271-6.785 3.907-3.084 7.196-5.757 13.981-5.757 6.991 0 10.28 2.673 13.981 5.757 1.645 1.234 3.29 2.673 5.346 3.701.822-1.439 1.439-3.084 2.262-4.523-1.645-.822-2.879-2.056-4.523-3.29-4.112-3.084-8.636-6.579-17.271-6.579zm0-29.197c-8.43 0-12.953 3.495-16.86 6.579-3.701 2.879-7.196 5.757-14.393 5.757s-10.692-2.879-14.393-5.757c-3.907-3.084-8.43-6.579-16.86-6.579s-12.953 3.495-16.86 6.579c-3.701 2.879-7.196 5.757-14.393 5.757s-10.692-2.879-14.393-5.757c-3.907-3.084-8.43-6.579-16.86-6.579s-12.953 3.495-16.86 6.579c-3.701 2.879-7.196 5.757-14.393 5.757s-10.692-2.879-14.393-5.757c-3.495-2.879-7.607-5.963-14.804-6.579 0 1.234.206 2.673.206 3.907 5.551.617 8.636 3.084 11.925 5.757 3.907 3.084 8.43 6.579 16.86 6.579s12.953-3.495 16.86-6.579c3.701-2.879 7.196-5.757 14.393-5.757s10.692 2.879 14.393 5.757c3.907 3.084 8.43 6.579 16.86 6.579s12.953-3.495 16.86-6.579c3.701-2.879 7.196-5.757 14.393-5.757s10.692 2.879 14.393 5.757c3.907 3.084 8.43 6.579 16.86 6.579s12.953-3.495 16.86-6.579c3.701-2.879 7.196-5.757 14.393-5.757s10.692 2.879 14.393 5.757c3.495 2.879 7.607 5.963 14.804 6.579l.617-3.907c-6.168-.411-9.458-2.879-12.953-5.757-3.701-3.084-8.224-6.579-16.654-6.579zM69.196 141.748c8.224 0 12.542-3.29 16.449-6.579 3.907-3.084 7.402-5.963 14.804-5.963s10.897 2.879 14.804 5.963c4.112 3.29 8.224 6.579 16.449 6.579s12.542-3.29 16.449-6.579c3.907-3.084 7.402-5.963 14.804-5.963s10.897 2.879 14.804 5.963c4.112 3.29 8.224 6.579 16.449 6.579s12.542-3.29 16.449-6.579c3.907-3.084 7.402-5.963 14.804-5.963s10.897 2.879 14.804 5.963 8.224 6.374 16.449 6.579v-.206c0-.822-.206-1.645-.206-2.673-6.991-.206-10.692-2.879-14.393-5.963-4.112-3.29-8.224-6.579-16.449-6.579s-12.542 3.29-16.449 6.579c-3.907 3.084-7.402 5.963-14.804 5.963s-10.897-2.879-14.804-5.963c-4.112-3.29-8.224-6.579-16.449-6.579s-12.542 3.29-16.449 6.579c-3.907 3.084-7.402 5.963-14.804 5.963s-10.897-2.879-14.804-5.963c-4.112-3.29-8.224-6.579-16.449-6.579s-12.542 3.29-16.449 6.579c-3.907 3.084-7.402 5.963-14.804 5.963s-10.897-2.879-14.804-5.963c-3.29-2.673-6.579-5.14-12.131-6.168-.206.822-.411 1.85-.617 2.673 4.935.822 7.813 3.084 10.897 5.551 3.907 3.495 8.019 6.785 16.449 6.785zm0-30.225c8.224 0 12.131-3.29 16.243-6.374 3.907-3.084 7.607-5.963 15.215-5.963s11.308 2.879 15.215 5.963 8.019 6.374 16.243 6.374 12.131-3.29 16.243-6.374c3.907-3.084 7.607-5.963 15.215-5.963s11.308 2.879 15.215 5.963 8.019 6.374 16.243 6.374 12.131-3.29 16.243-6.374c3.907-3.084 7.607-5.963 15.215-5.963s11.308 2.879 15.215 5.963c2.673 2.056 5.14 4.112 9.047 5.346-.206-.617-.617-1.439-.822-2.056-2.673-1.234-4.935-2.879-6.991-4.523-3.907-3.084-8.019-6.374-16.243-6.374s-12.131 3.29-16.243 6.374c-3.907 3.084-7.607 5.963-15.215 5.963s-11.308-2.879-15.215-5.963-8.019-6.374-16.243-6.374-12.131 3.29-16.243 6.374c-3.907 3.084-7.607 5.963-15.215 5.963s-11.308-2.879-15.215-5.963c-4.318-3.29-8.43-6.579-16.654-6.579s-12.131 3.29-16.243 6.374c-3.907 3.084-7.607 5.963-15.215 5.963s-11.308-2.879-15.215-5.963c-.617-.617-1.645-1.439-2.673-2.262-.206.411-.617 1.028-.822 1.645.822.617 1.85 1.234 2.673 2.056 3.907 3.084 8.019 6.374 16.243 6.374z"/></svg>